<mxfile host="app.diagrams.net" agent="Mozilla/5.0 (Macintosh; Intel Mac OS X 10_15_7) AppleWebKit/605.1.15 (KHTML, like Gecko) Version/18.1.1 Safari/605.1.15" version="26.0.5">
  <diagram id="C5RBs43oDa-KdzZeNtuy" name="Page-1">
    <mxGraphModel dx="816" dy="452" grid="1" gridSize="10" guides="1" tooltips="1" connect="1" arrows="1" fold="1" page="1" pageScale="1" pageWidth="827" pageHeight="1169" math="0" shadow="0">
      <root>
        <mxCell id="WIyWlLk6GJQsqaUBKTNV-0" />
        <mxCell id="WIyWlLk6GJQsqaUBKTNV-1" parent="WIyWlLk6GJQsqaUBKTNV-0" />
        <mxCell id="L1wbAY0ZHXMkcqgAG1mb-40" value="DESeq2" style="rounded=1;whiteSpace=wrap;html=1;fontSize=12;glass=0;strokeWidth=1;shadow=0;fillColor=#FFFF66;" parent="WIyWlLk6GJQsqaUBKTNV-1" vertex="1">
          <mxGeometry x="110" y="175" width="90" height="40" as="geometry" />
        </mxCell>
        <mxCell id="L1wbAY0ZHXMkcqgAG1mb-41" value="distinct" style="rounded=1;whiteSpace=wrap;html=1;fontSize=12;glass=0;strokeWidth=1;shadow=0;fillColor=#FFFF66;" parent="WIyWlLk6GJQsqaUBKTNV-1" vertex="1">
          <mxGeometry x="110" y="125" width="90" height="40" as="geometry" />
        </mxCell>
        <mxCell id="L1wbAY0ZHXMkcqgAG1mb-42" value="MAST" style="rounded=1;whiteSpace=wrap;html=1;fontSize=12;glass=0;strokeWidth=1;shadow=0;fillColor=#FFFF66;" parent="WIyWlLk6GJQsqaUBKTNV-1" vertex="1">
          <mxGeometry x="110" y="75" width="90" height="40" as="geometry" />
        </mxCell>
        <mxCell id="L1wbAY0ZHXMkcqgAG1mb-43" value="Permutation Test" style="rounded=1;whiteSpace=wrap;html=1;fontSize=12;glass=0;strokeWidth=1;shadow=0;fillColor=#FFFF66;" parent="WIyWlLk6GJQsqaUBKTNV-1" vertex="1">
          <mxGeometry x="110" y="225" width="90" height="40" as="geometry" />
        </mxCell>
        <mxCell id="L1wbAY0ZHXMkcqgAG1mb-44" value="Hierarchical Bootstrapping" style="rounded=1;whiteSpace=wrap;html=1;fontSize=12;glass=0;strokeWidth=1;shadow=0;fillColor=#FFFF66;" parent="WIyWlLk6GJQsqaUBKTNV-1" vertex="1">
          <mxGeometry x="110" y="25" width="90" height="40" as="geometry" />
        </mxCell>
        <mxCell id="aCQcHQB5PfxYNCajxHsR-34" style="edgeStyle=orthogonalEdgeStyle;rounded=0;orthogonalLoop=1;jettySize=auto;html=1;entryX=0;entryY=0.25;entryDx=0;entryDy=0;strokeColor=#6666FF;endSize=0;strokeWidth=2;" parent="WIyWlLk6GJQsqaUBKTNV-1" source="L1wbAY0ZHXMkcqgAG1mb-45" target="L1wbAY0ZHXMkcqgAG1mb-52" edge="1">
          <mxGeometry relative="1" as="geometry">
            <Array as="points">
              <mxPoint x="450" y="170" />
              <mxPoint x="450" y="302" />
            </Array>
          </mxGeometry>
        </mxCell>
        <mxCell id="aCQcHQB5PfxYNCajxHsR-35" style="edgeStyle=orthogonalEdgeStyle;rounded=0;orthogonalLoop=1;jettySize=auto;html=1;entryX=0;entryY=0.25;entryDx=0;entryDy=0;strokeColor=#6666FF;endSize=0;strokeWidth=2;" parent="WIyWlLk6GJQsqaUBKTNV-1" source="L1wbAY0ZHXMkcqgAG1mb-45" target="Qb0oarp7umB1AzH16k6q-5" edge="1">
          <mxGeometry relative="1" as="geometry">
            <Array as="points">
              <mxPoint x="450" y="170" />
              <mxPoint x="450" y="203" />
            </Array>
          </mxGeometry>
        </mxCell>
        <mxCell id="aCQcHQB5PfxYNCajxHsR-36" style="edgeStyle=orthogonalEdgeStyle;rounded=0;orthogonalLoop=1;jettySize=auto;html=1;entryX=0;entryY=0.5;entryDx=0;entryDy=0;strokeColor=#6666FF;endSize=0;strokeWidth=2;" parent="WIyWlLk6GJQsqaUBKTNV-1" source="L1wbAY0ZHXMkcqgAG1mb-45" target="L1wbAY0ZHXMkcqgAG1mb-50" edge="1">
          <mxGeometry relative="1" as="geometry">
            <Array as="points">
              <mxPoint x="450" y="170" />
              <mxPoint x="450" y="163" />
            </Array>
          </mxGeometry>
        </mxCell>
        <mxCell id="aCQcHQB5PfxYNCajxHsR-37" style="edgeStyle=orthogonalEdgeStyle;rounded=0;orthogonalLoop=1;jettySize=auto;html=1;entryX=0;entryY=0.5;entryDx=0;entryDy=0;strokeColor=#6666FF;endSize=0;strokeWidth=2;" parent="WIyWlLk6GJQsqaUBKTNV-1" source="L1wbAY0ZHXMkcqgAG1mb-45" target="L1wbAY0ZHXMkcqgAG1mb-51" edge="1">
          <mxGeometry relative="1" as="geometry">
            <Array as="points">
              <mxPoint x="450" y="170" />
              <mxPoint x="450" y="113" />
            </Array>
          </mxGeometry>
        </mxCell>
        <mxCell id="L1wbAY0ZHXMkcqgAG1mb-45" value="Simulated Data" style="rounded=1;whiteSpace=wrap;html=1;fontSize=12;glass=0;strokeWidth=1;shadow=0;fillColor=#6666FF;" parent="WIyWlLk6GJQsqaUBKTNV-1" vertex="1">
          <mxGeometry x="280" y="150" width="100" height="40" as="geometry" />
        </mxCell>
        <mxCell id="aCQcHQB5PfxYNCajxHsR-31" style="edgeStyle=orthogonalEdgeStyle;rounded=0;orthogonalLoop=1;jettySize=auto;html=1;entryX=0;entryY=0.75;entryDx=0;entryDy=0;strokeColor=#FF9933;endSize=0;strokeWidth=2;" parent="WIyWlLk6GJQsqaUBKTNV-1" source="L1wbAY0ZHXMkcqgAG1mb-46" target="L1wbAY0ZHXMkcqgAG1mb-52" edge="1">
          <mxGeometry relative="1" as="geometry">
            <Array as="points">
              <mxPoint x="430" y="264" />
              <mxPoint x="430" y="322" />
            </Array>
          </mxGeometry>
        </mxCell>
        <mxCell id="aCQcHQB5PfxYNCajxHsR-33" style="edgeStyle=orthogonalEdgeStyle;rounded=0;orthogonalLoop=1;jettySize=auto;html=1;entryX=0;entryY=0.75;entryDx=0;entryDy=0;strokeColor=#FF9933;endSize=0;strokeWidth=2;" parent="WIyWlLk6GJQsqaUBKTNV-1" source="L1wbAY0ZHXMkcqgAG1mb-46" target="Qb0oarp7umB1AzH16k6q-5" edge="1">
          <mxGeometry relative="1" as="geometry">
            <Array as="points">
              <mxPoint x="430" y="264" />
              <mxPoint x="430" y="223" />
            </Array>
          </mxGeometry>
        </mxCell>
        <mxCell id="skqzC2qFUTOWyHtPLZse-1" style="edgeStyle=orthogonalEdgeStyle;rounded=0;orthogonalLoop=1;jettySize=auto;html=1;exitX=1;exitY=0.5;exitDx=0;exitDy=0;entryX=0;entryY=0.5;entryDx=0;entryDy=0;fillColor=#ffe6cc;strokeColor=#FF9933;strokeWidth=2;endSize=0;" edge="1" parent="WIyWlLk6GJQsqaUBKTNV-1" source="L1wbAY0ZHXMkcqgAG1mb-46" target="skqzC2qFUTOWyHtPLZse-0">
          <mxGeometry relative="1" as="geometry" />
        </mxCell>
        <mxCell id="L1wbAY0ZHXMkcqgAG1mb-46" value="Real Data" style="rounded=1;whiteSpace=wrap;html=1;fontSize=12;glass=0;strokeWidth=1;shadow=0;fillColor=#FF9933;" parent="WIyWlLk6GJQsqaUBKTNV-1" vertex="1">
          <mxGeometry x="280" y="244" width="100" height="40" as="geometry" />
        </mxCell>
        <mxCell id="aCQcHQB5PfxYNCajxHsR-1" style="edgeStyle=orthogonalEdgeStyle;rounded=0;orthogonalLoop=1;jettySize=auto;html=1;entryX=0.5;entryY=0;entryDx=0;entryDy=0;endSize=0;strokeWidth=2;" parent="WIyWlLk6GJQsqaUBKTNV-1" source="L1wbAY0ZHXMkcqgAG1mb-47" target="L1wbAY0ZHXMkcqgAG1mb-45" edge="1">
          <mxGeometry relative="1" as="geometry" />
        </mxCell>
        <mxCell id="L1wbAY0ZHXMkcqgAG1mb-47" value="Simulation and Preprocessing" style="rounded=1;whiteSpace=wrap;html=1;fontSize=12;glass=0;strokeWidth=1;shadow=0;fillColor=#33FFFF;strokeColor=#330000;" parent="WIyWlLk6GJQsqaUBKTNV-1" vertex="1">
          <mxGeometry x="280" y="70" width="100" height="40" as="geometry" />
        </mxCell>
        <mxCell id="aCQcHQB5PfxYNCajxHsR-2" style="edgeStyle=orthogonalEdgeStyle;rounded=0;orthogonalLoop=1;jettySize=auto;html=1;entryX=0.5;entryY=1;entryDx=0;entryDy=0;endSize=0;strokeWidth=2;" parent="WIyWlLk6GJQsqaUBKTNV-1" source="L1wbAY0ZHXMkcqgAG1mb-49" target="L1wbAY0ZHXMkcqgAG1mb-46" edge="1">
          <mxGeometry relative="1" as="geometry" />
        </mxCell>
        <mxCell id="L1wbAY0ZHXMkcqgAG1mb-49" value="Preprocessing" style="rounded=1;whiteSpace=wrap;html=1;fontSize=12;glass=0;strokeWidth=1;shadow=0;fillColor=#33FFFF;" parent="WIyWlLk6GJQsqaUBKTNV-1" vertex="1">
          <mxGeometry x="280" y="330" width="100" height="40" as="geometry" />
        </mxCell>
        <mxCell id="L1wbAY0ZHXMkcqgAG1mb-50" value="Correlation Analysis" style="rounded=1;whiteSpace=wrap;html=1;fontSize=12;glass=0;strokeWidth=1;shadow=0;fillColor=#00CC00;" parent="WIyWlLk6GJQsqaUBKTNV-1" vertex="1">
          <mxGeometry x="550" y="143" width="100" height="40" as="geometry" />
        </mxCell>
        <mxCell id="L1wbAY0ZHXMkcqgAG1mb-51" value="Runtime Benchmark" style="rounded=1;whiteSpace=wrap;html=1;fontSize=12;glass=0;strokeWidth=1;shadow=0;fillColor=#00CC00;" parent="WIyWlLk6GJQsqaUBKTNV-1" vertex="1">
          <mxGeometry x="550" y="93" width="100" height="40" as="geometry" />
        </mxCell>
        <mxCell id="L1wbAY0ZHXMkcqgAG1mb-52" value="Performance Benchmark" style="rounded=1;whiteSpace=wrap;html=1;fontSize=12;glass=0;strokeWidth=1;shadow=0;fillColor=#00CC00;" parent="WIyWlLk6GJQsqaUBKTNV-1" vertex="1">
          <mxGeometry x="550" y="292" width="100" height="40" as="geometry" />
        </mxCell>
        <mxCell id="aCQcHQB5PfxYNCajxHsR-38" style="edgeStyle=orthogonalEdgeStyle;rounded=0;orthogonalLoop=1;jettySize=auto;html=1;entryX=0;entryY=0.75;entryDx=0;entryDy=0;strokeColor=#FF9933;strokeWidth=2;endSize=0;" parent="WIyWlLk6GJQsqaUBKTNV-1" source="L1wbAY0ZHXMkcqgAG1mb-53" target="L1wbAY0ZHXMkcqgAG1mb-52" edge="1">
          <mxGeometry relative="1" as="geometry">
            <Array as="points">
              <mxPoint x="475" y="322" />
            </Array>
          </mxGeometry>
        </mxCell>
        <mxCell id="L1wbAY0ZHXMkcqgAG1mb-53" value="Reactome Database" style="rounded=1;whiteSpace=wrap;html=1;fontSize=12;glass=0;strokeWidth=1;shadow=0;fillColor=#B3B3B3;" parent="WIyWlLk6GJQsqaUBKTNV-1" vertex="1">
          <mxGeometry x="440" y="330" width="70" height="40" as="geometry" />
        </mxCell>
        <mxCell id="Qb0oarp7umB1AzH16k6q-0" value="scVI" style="rounded=1;whiteSpace=wrap;html=1;fontSize=12;glass=0;strokeWidth=1;shadow=0;fillColor=#FFFF66;" parent="WIyWlLk6GJQsqaUBKTNV-1" vertex="1">
          <mxGeometry x="110" y="275" width="90" height="40" as="geometry" />
        </mxCell>
        <mxCell id="Qb0oarp7umB1AzH16k6q-1" value="DREAM" style="rounded=1;whiteSpace=wrap;html=1;fontSize=12;glass=0;strokeWidth=1;shadow=0;fillColor=#FFFF66;" parent="WIyWlLk6GJQsqaUBKTNV-1" vertex="1">
          <mxGeometry x="110" y="325" width="90" height="40" as="geometry" />
        </mxCell>
        <mxCell id="Qb0oarp7umB1AzH16k6q-5" value="Negative Control" style="rounded=1;whiteSpace=wrap;html=1;fontSize=12;glass=0;strokeWidth=1;shadow=0;fillColor=#00CC00;" parent="WIyWlLk6GJQsqaUBKTNV-1" vertex="1">
          <mxGeometry x="550" y="193" width="100" height="40" as="geometry" />
        </mxCell>
        <mxCell id="yrE2bBnbpr8EGXUE2f-N-0" value="" style="triangle;whiteSpace=wrap;html=1;fillColor=#f5f5f5;strokeColor=#666666;fontColor=#333333;strokeWidth=2;" parent="WIyWlLk6GJQsqaUBKTNV-1" vertex="1">
          <mxGeometry x="223" y="135" width="30" height="170" as="geometry" />
        </mxCell>
        <mxCell id="skqzC2qFUTOWyHtPLZse-0" value="Reproducibility&lt;div&gt;Analysis&lt;/div&gt;" style="rounded=1;whiteSpace=wrap;html=1;fontSize=12;glass=0;strokeWidth=1;shadow=0;fillColor=#00CC00;" vertex="1" parent="WIyWlLk6GJQsqaUBKTNV-1">
          <mxGeometry x="550" y="243" width="100" height="40" as="geometry" />
        </mxCell>
        <mxCell id="skqzC2qFUTOWyHtPLZse-2" value="t-test" style="rounded=1;whiteSpace=wrap;html=1;fontSize=12;glass=0;strokeWidth=1;shadow=0;fillColor=#FFFF66;" vertex="1" parent="WIyWlLk6GJQsqaUBKTNV-1">
          <mxGeometry x="110" y="375" width="90" height="40" as="geometry" />
        </mxCell>
      </root>
    </mxGraphModel>
  </diagram>
</mxfile>
